<?xml version="1.0" encoding="UTF-8" standalone="no"?>
<svg
   xmlns:dc="http://purl.org/dc/elements/1.1/"
   xmlns:cc="http://creativecommons.org/ns#"
   xmlns:rdf="http://www.w3.org/1999/02/22-rdf-syntax-ns#"
   xmlns:svg="http://www.w3.org/2000/svg"
   xmlns="http://www.w3.org/2000/svg"
   viewBox="0 0 1565.4787 454.29865"
   height="454.29865"
   width="1565.4786"
   xml:space="preserve"
   id="svg1373"
   version="1.1"><metadata
     id="metadata1379"><rdf:RDF><cc:Work
         rdf:about=""><dc:format>image/svg+xml</dc:format><dc:type
           rdf:resource="http://purl.org/dc/dcmitype/StillImage" /><dc:title></dc:title></cc:Work></rdf:RDF></metadata><defs
     id="defs1377"><clipPath
       id="clipPath1391"
       clipPathUnits="userSpaceOnUse"><path
         id="path1389"
         d="m 18.827,359.551 h 1174.11 V 18.827 H 18.827 Z" /></clipPath></defs><g
     transform="matrix(1.3333333,0,0,-1.3333333,-25.102666,479.40132)"
     id="g1381"><path
       id="path1383"
       style="fill:#f4c400;fill-opacity:1;fill-rule:nonzero;stroke:none"
       d="M 18.827,18.827 H 1192.936 V 359.551 H 18.827 Z" /><g
       id="g1385"><g
         clip-path="url(#clipPath1391)"
         id="g1387"><g
           transform="translate(346.3656,113.9488)"
           id="g1393"><path
             id="path1395"
             style="fill:#002856;fill-opacity:1;fill-rule:nonzero;stroke:none"
             d="m 0,0 h -43.553 l -19.199,80.017 c -2.587,10.992 -3.238,14.233 -5.607,27.181 -2.375,-10.357 -2.588,-11.439 -4.962,-22.004 L -94.464,0 h -34.792 l 40.194,152.257 h 44.646 l 18.981,-79.795 c 2.589,-11.644 3.233,-15.098 5.169,-28.256 2.584,12.515 2.801,14.023 5.817,27.18 L 5.395,152.257 H 39.48 Z" /></g><g
           transform="translate(424.0184,111.3511)"
           id="g1397"><path
             id="path1399"
             style="fill:#002856;fill-opacity:1;fill-rule:nonzero;stroke:none"
             d="m 0,0 c -28.25,0 -47.02,11.441 -47.02,39.042 0,18.98 7.334,45.08 23.291,59.315 15.53,13.807 36.249,14.669 45.52,14.669 15.097,0 30.619,-3.668 39.23,-15.742 4.737,-6.471 6.677,-15.315 6.677,-23.73 0,-6.256 -1.08,-12.512 -2.37,-18.767 C 56.287,15.754 36.244,0 0,0 m 34.086,79.375 c 0,8.844 -3.881,17.257 -14.881,17.257 -10.356,0 -15.965,-7.549 -18.339,-10.784 -8.843,-13.159 -13.59,-42.925 -13.59,-51.33 0,-10.141 4.963,-17.905 15.101,-17.905 15.748,0 23.081,18.983 28.69,42.917 0.86,3.888 3.019,12.728 3.019,19.845" /></g><g
           transform="translate(529.9076,161.3902)"
           id="g1401"><path
             id="path1403"
             style="fill:#002856;fill-opacity:1;fill-rule:nonzero;stroke:none"
             d="m 0,0 c -8.417,4.099 -21.791,11.214 -21.791,28.473 0,10.571 5.613,21.789 18.124,28.475 9.062,4.964 19.63,6.256 29.988,6.256 7.76,0 43.141,0 43.141,-26.1 0,-1.941 -0.22,-3.669 -0.652,-5.825 l -29.547,0.863 c 0,1.293 0.208,2.802 0.208,4.097 0,9.71 -8.407,11.651 -14.019,11.651 -8.193,0 -14.02,-4.531 -14.02,-10.786 0,-7.768 6.906,-11 16.391,-15.749 l 10.573,-4.53 c 9.276,-4.746 21.57,-10.784 21.57,-28.249 0,-11.22 -6.043,-22.428 -14.666,-28.894 -7.336,-5.618 -18.553,-9.721 -35.81,-9.721 -23.294,0 -47.446,5.399 -47.446,28.048 0,2.587 0.432,4.525 0.864,7.334 l 31.701,-0.866 c 0,-1.073 -0.216,-2.59 -0.216,-3.881 0,-11.863 9.278,-15.1 16.179,-15.1 10.568,0 15.749,6.689 15.749,13.378 0,8.838 -7.554,12.497 -16.184,16.385 z" /></g><g
           transform="translate(643.9427,155.3521)"
           id="g1405"><path
             id="path1407"
             style="fill:#002856;fill-opacity:1;fill-rule:nonzero;stroke:none"
             d="m 0,0 c -2.156,-8.833 -2.586,-10.992 -2.586,-14.015 0,-6.9 5.395,-9.059 10.357,-9.059 3.451,0 6.468,0.87 10.349,1.727 l -4.961,-18.766 c -6.469,-1.513 -13.37,-3.229 -23.078,-3.229 -5.181,0 -10.353,0.425 -15.113,2.363 -11.867,4.314 -13.807,12.512 -13.807,20.064 0,5.611 1.293,11.209 3.02,17.465 l 14.249,55.221 h -14.249 l 3.884,14.667 h 14.251 l 5.388,20.907 36.675,6.469 -7.12,-27.376 H 35.16 L 31.282,51.771 H 13.589 Z" /></g><g
           transform="translate(717.9515,111.3511)"
           id="g1409"><path
             id="path1411"
             style="fill:#002856;fill-opacity:1;fill-rule:nonzero;stroke:none"
             d="m 0,0 c -28.256,0 -47.022,11.441 -47.022,39.042 0,18.98 7.333,45.08 23.293,59.315 15.538,13.807 36.243,14.669 45.52,14.669 15.095,0 30.63,-3.668 39.252,-15.742 4.744,-6.471 6.695,-15.315 6.695,-23.73 0,-6.256 -1.087,-12.512 -2.378,-18.767 C 56.301,15.754 36.24,0 0,0 m 34.084,79.375 c 0,8.844 -3.881,17.257 -14.883,17.257 C 8.849,96.632 3.233,89.083 0.863,85.848 -7.98,72.689 -12.728,42.923 -12.728,34.518 c 0,-10.141 4.957,-17.905 15.102,-17.905 15.751,0 23.08,18.983 28.694,42.917 0.863,3.888 3.016,12.728 3.016,19.845" /></g><g
           transform="translate(974.4838,217.6285)"
           id="g1413"><path
             id="path1415"
             style="fill:#002856;fill-opacity:1;fill-rule:nonzero;stroke:none"
             d="m 0,0 c -6.053,-7.692 -14.69,-25.671 -23.047,-43.053 -7.504,-15.627 -15.269,-31.774 -20.415,-38.81 -8.575,-11.716 -13.543,-15.027 -14.825,-15.749 h -63.359 c 2.304,2.285 5.125,5.457 8.476,9.851 h 11.136 l 0.387,0.106 c 0.732,0.2 6.991,2.257 16.79,14.611 h 21.672 l 0.642,0.332 c 0.714,0.365 4.816,2.948 15.707,17.816 5.466,7.48 12.995,23.154 20.968,39.753 4.603,9.579 9.291,19.335 13.517,27.331 H 12.758 C 8.856,9.474 4.393,5.577 0,0 m -123.855,-30.647 2.386,5.113 h 6.194 c 0.397,1.417 0.947,2.895 1.65,4.435 h -5.581 l 2.387,5.114 h 6.193 c 4.933,7.146 13.245,13.737 24.817,13.737 8.032,0 12.509,-3.203 14.178,-7.454 l -6.19,-3.388 c -1.334,2.772 -4.509,4.805 -9.614,4.805 -6.739,0 -11.857,-3.45 -15.362,-7.7 h 18.65 l -3.883,-5.114 h -18.107 c -0.772,-1.54 -1.323,-3.018 -1.703,-4.374 l -0.016,-0.061 h 16.269 l -3.884,-5.113 h -12.932 c 0.441,-4.498 3.659,-7.578 9.65,-7.578 4.221,0 8.125,1.54 11.366,4.127 l 3.508,-3.757 c -4.354,-3.881 -10.438,-6.408 -17.108,-6.408 -10.143,0 -15.364,5.668 -15.109,13.616 z m 68.742,73.314 H 4.616 C 0.712,39.956 -3.751,36.059 -8.142,30.479 -14.198,22.787 -22.838,4.804 -31.19,-12.585 -38.698,-28.21 -46.458,-44.365 -51.607,-51.401 -59.751,-62.53 -63.604,-66.114 -64.859,-67.136 h -15.687 c 5.287,8.122 12.108,22.315 19.299,37.273 8.215,17.103 16.71,34.783 22.364,41.966 10.409,13.221 20.886,15.894 20.991,15.919 v 5.835 h -51.733 c 7.271,6.587 13.483,8.526 14.512,8.81 m 46,-24.57 c 2.061,3.612 3.961,6.628 5.613,8.728 10.41,13.219 20.884,15.893 20.996,15.919 v 5.833 h -73.007 -0.333 l -0.32,-0.072 C -56.64,48.396 -67.097,45.891 -77.945,33.857 h -13.872 -0.327 l -0.323,-0.074 c -0.521,-0.119 -12.85,-3.037 -24.647,-18.027 -6.06,-7.69 -14.7,-25.676 -23.058,-43.07 -7.504,-15.623 -15.265,-31.775 -20.409,-38.8 -10.044,-13.728 -17.177,-15.806 -17.249,-15.828 v -5.819 h 57.116 c -6.978,-8.433 -10.036,-10.026 -10.077,-10.045 v -5.715 h 73.683 l 0.47,0.159 c 1.061,0.363 6.923,2.945 17.946,18.011 5.465,7.469 13,23.139 20.977,39.739 8.214,17.095 16.706,34.778 22.357,41.955 10.416,13.222 20.881,15.893 20.991,15.921 v 5.833 z" /></g></g></g><g
       transform="translate(27.35343,344.84775)"
       id="g1417"><path
         id="path1419"
         style="fill:none;stroke:#ffffff;stroke-width:1.25;stroke-linecap:butt;stroke-linejoin:miter;stroke-miterlimit:10;stroke-dasharray:none;stroke-opacity:1"
         d="M -16.156801,25.245002 -27,0 m 1305.2934,27.99023 c 9,0 64.7411,6.614286 -50.31,-11.429509 M -68.833116,-318.37591 -27,-312.378 m 1219.8946,13.35248 c 28.0393,19.40697 -15.1887,-7.14804 -8.1306,-13.35248 M -12.176401,36.294002 6,33 M -42.268865,-338.65664 6,-345.378 M 1158.9758,23.850912 1151.764,33" /></g><g
       transform="translate(27,345.3779)"
       id="g1421"><path
         id="path1423"
         style="fill:none;stroke:#000000;stroke-width:0.25;stroke-linecap:butt;stroke-linejoin:miter;stroke-miterlimit:10;stroke-dasharray:none;stroke-opacity:1"
         d="M -75.402251,18.279334 -27,0 M 1184.0188,39.988082 1175.3127,0 h 9.4513 M -74.545408,-299.23973 C -608.89146,-348.15126 -18,-312.378 -27,-312.378 M -48.838001,51.698334 6,33 M -55.407136,-338.65664 6,-345.378 M 1180.8462,28.619521 1151.764,33" /></g></g></svg>